HIERARCHY
ROOT Hips
{
	OFFSET 0.000000 0.000000 0.000000
	CHANNELS 6 Xposition Yposition Zposition Xrotation Yrotation Zrotation
	JOINT Chest
	{
		OFFSET 0.000000 0.009282 11.569106
		CHANNELS 3 Xrotation Yrotation Zrotation
		JOINT Chest2
		{
			OFFSET 0.000000 -0.016863 9.269641
			CHANNELS 3 Xrotation Yrotation Zrotation
			JOINT Chest3
			{
				OFFSET 0.000000 0.000000 8.374491
				CHANNELS 3 Xrotation Yrotation Zrotation
				JOINT Chest4
				{
					OFFSET 0.000000 0.000000 8.374493
					CHANNELS 3 Xrotation Yrotation Zrotation
					JOINT Neck
					{
						OFFSET 0.000000 -0.000001 12.152554
						CHANNELS 3 Xrotation Yrotation Zrotation
						JOINT Head
						{
							OFFSET 0.000000 -0.040100 7.802319
							CHANNELS 3 Xrotation Yrotation Zrotation
							End Site
							{
								OFFSET 0.000000 -0.020946 14.853096
							}
						}
					}
					JOINT RightCollar
					{
						OFFSET -2.894404 0.000000 6.791374
						CHANNELS 3 Xrotation Yrotation Zrotation
						JOINT RightShoulder
						{
							OFFSET -13.574684 0.000000 0.000000
							CHANNELS 3 Xrotation Yrotation Zrotation
							JOINT RightElbow
							{
								OFFSET -23.923903 0.000000 0.000000
								CHANNELS 3 Xrotation Yrotation Zrotation
								JOINT RightWrist
								{
									OFFSET -19.846718 -0.012765 0.000000
									CHANNELS 3 Xrotation Yrotation Zrotation
									End Site
									{
										OFFSET -14.973145 0.000000 0.000000
									}
								}
							}
						}
					}
					JOINT LeftCollar
					{
						OFFSET 2.894404 0.000000 6.791374
						CHANNELS 3 Xrotation Yrotation Zrotation
						JOINT LeftShoulder
						{
							OFFSET 13.574684 0.000000 0.000000
							CHANNELS 3 Xrotation Yrotation Zrotation
							JOINT LeftElbow
							{
								OFFSET 23.923903 0.000000 0.000000
								CHANNELS 3 Xrotation Yrotation Zrotation
								JOINT LeftWrist
								{
									OFFSET 19.846718 -0.012765 0.000000
									CHANNELS 3 Xrotation Yrotation Zrotation
									End Site
									{
										OFFSET 14.973145 0.000000 0.000000
									}
								}
							}
						}
					}
				}
			}
		}
	}
	JOINT RightHip
	{
		OFFSET -9.469263 -0.004642 0.045487
		CHANNELS 3 Xrotation Yrotation Zrotation
		JOINT RightKnee
		{
			OFFSET 0.000000 -0.002666 -40.478676
			CHANNELS 3 Xrotation Yrotation Zrotation
			JOINT RightAnkle
			{
				OFFSET 0.000000 -0.049110 -35.224068
				CHANNELS 3 Xrotation Yrotation Zrotation
				JOINT RightToe
				{
					OFFSET 0.000000 -12.539530 -6.151390
					CHANNELS 3 Xrotation Yrotation Zrotation
					End Site
					{
						OFFSET 0.000000 -5.044995 -1.291870
					}
				}
			}
		}
	}
	JOINT LeftHip
	{
		OFFSET 9.469263 -0.004642 0.045487
		CHANNELS 3 Xrotation Yrotation Zrotation
		JOINT LeftKnee
		{
			OFFSET 0.000000 -0.002666 -40.478676
			CHANNELS 3 Xrotation Yrotation Zrotation
			JOINT LeftAnkle
			{
				OFFSET 0.000000 -0.049110 -35.224068
				CHANNELS 3 Xrotation Yrotation Zrotation
				JOINT LeftToe
				{
					OFFSET 0.000000 -12.539530 -6.151390
					CHANNELS 3 Xrotation Yrotation Zrotation
					End Site
					{
						OFFSET 0.000000 -5.044995 -1.291870
					}
				}
			}
		}
	}
}
MOTION
Frames: 5
Frame Time: 0.016667
-11.673701 -6.145036 83.044281 4.378442 7.458129 -114.775701 3.886595 -0.382193 -0.962756 1.726896 -0.161334 -0.433108 1.726896 -0.161334 -0.433119 1.295286 -0.119778 -0.325299 16.562425 -0.281278 0.198029 -5.426661 -0.582648 0.261279 3.127843 -4.120519 3.147783 30.945087 -54.627238 79.690030 39.047170 -1.688630 78.209791 -45.832209 42.352572 66.824576 3.555481 9.277366 -5.909018 21.881134 52.840413 -68.153328 44.263382 16.409733 -57.602052 -44.816658 -39.161771 -80.408976 11.273511 -0.349959 -1.748269 2.805747 0.096081 1.674935 -5.593492 -1.180742 0.115073 0.005768 -0.025431 -0.002553 11.958319 0.137434 1.385689 1.219854 -0.660965 2.685053 -4.821268 0.417098 -0.728305 0.024065 0.038997 0.002171 
-11.683610 -6.128299 83.041275 4.390426 7.509167 -114.750866 3.892454 -0.369211 -0.965511 1.729471 -0.155500 -0.435020 1.729471 -0.155500 -0.435018 1.297214 -0.115396 -0.326704 16.515940 -0.314161 0.164846 -5.513212 -0.630898 0.188936 3.096313 -4.132059 3.165377 30.955435 -54.618291 79.695856 39.032714 -1.867574 78.206895 -46.084116 42.304617 66.972471 3.520123 9.268737 -5.906480 21.839880 52.864694 -68.099964 44.303295 16.431174 -57.645629 -44.841104 -39.205241 -80.321297 11.303722 -0.341070 -1.769934 2.882166 0.071483 1.697849 -5.645477 -1.147250 0.089563 0.003756 -0.026349 -0.002812 12.003609 0.135419 1.346203 1.253511 -0.659822 2.725241 -4.851224 0.415898 -0.744374 0.023907 0.039625 0.001677 
-11.693815 -6.111054 83.039001 4.405034 7.566183 -114.732179 3.907912 -0.351788 -0.951665 1.736310 -0.147471 -0.429510 1.736310 -0.147471 -0.429503 1.302337 -0.109384 -0.322547 16.473520 -0.354828 0.127584 -5.592256 -0.691820 0.106414 3.046599 -4.146735 3.150009 30.981605 -54.625783 79.724413 39.014485 -2.044071 78.180394 -46.280385 42.292378 67.110877 3.460687 9.248239 -5.925257 21.811588 52.867956 -68.067958 44.318953 16.563646 -57.640766 -44.826111 -39.239088 -80.243999 11.340020 -0.339050 -1.764564 2.958440 0.060256 1.717960 -5.697487 -1.115781 0.045572 0.001911 -0.029110 -0.001784 12.058265 0.136017 1.313476 1.283587 -0.663492 2.769313 -4.877643 0.421581 -0.770558 0.021725 0.037813 0.001222 
-11.705276 -6.089908 83.036949 4.423629 7.626450 -114.717043 3.925722 -0.336408 -0.932724 1.742984 -0.140004 -0.422719 1.742987 -0.140004 -0.422729 1.307337 -0.103799 -0.317448 16.439176 -0.394029 0.091278 -5.656356 -0.750357 0.026146 2.991987 -4.153046 3.127163 31.013785 -54.648757 79.754090 39.009693 -2.209829 78.140069 -46.367531 42.307974 67.202156 3.404168 9.231253 -5.942999 21.759347 52.852045 -68.030439 44.333983 16.742576 -57.591438 -44.815576 -39.243316 -80.208592 11.389256 -0.348314 -1.750800 3.027964 0.062982 1.740277 -5.757384 -1.086777 -0.007763 0.006280 -0.032650 -0.000317 12.119484 0.134228 1.298812 1.307023 -0.668609 2.803239 -4.907128 0.429883 -0.796534 0.027796 0.036126 0.000770 
-11.718175 -6.069914 83.034676 4.441119 7.692712 -114.693192 3.932163 -0.323011 -0.922708 1.745829 -0.134269 -0.419229 1.745827 -0.134269 -0.419232 1.309463 -0.099505 -0.314809 16.419876 -0.421394 0.059669 -5.692469 -0.788969 -0.041303 2.961084 -4.151943 3.118982 31.018399 -54.648617 79.764261 39.011677 -2.402492 78.096759 -46.364437 42.304361 67.232359 3.369750 9.219745 -5.945268 21.693362 52.823221 -67.979568 44.370613 16.842772 -57.532753 -44.864193 -39.229413 -80.223092 11.449380 -0.355860 -1.762456 3.081401 0.069987 1.777070 -5.800133 -1.061745 -0.059343 0.003856 -0.035606 0.000309 12.189591 0.134562 1.283194 1.327049 -0.675978 2.828719 -4.927304 0.439986 -0.829395 0.024970 0.034626 -0.000200 
